# xmcd
#
# Track frame offsets:
#	150
#	11676
#	24557
#	35152
#	48385
#	60470
#	72885
#	81559
#	91167
#	103836
#	116399
#	133600
#	142341
#	151324
#	163095
#	170412
#	182790
#	198407
#	207780
#
# Disc length: 3001 seconds
#
# Revision: 1
# Processed by: cddbd v1.4PL0 Copyright (c) Steve Scherf et al.
# Submitted via: audiograbber 1.80
#
DISCID=0f0bb713
DTITLE=Robert Bäcker - Solo oba net allan
DYEAR=1900
DGENRE=
TTITLE0=Polizei
TTITLE1=Klonlied
TTITLE2=Gott ist tot
TTITLE3=Fast ein Liebeslied
TTITLE4=Zuzler Blues
TTITLE5=Da Willi
TTITLE6=Süd-Ost Tangente
TTITLE7=Wappler II
TTITLE8=Der Blues vom seichten Wirten
TTITLE9=Brauner Himmel
TTITLE10=Solo aba net allan
TTITLE11=Ganz in Weiss
TTITLE12=Fuchs du hast....
TTITLE13=Es gibt so vule Deppate
TTITLE14=Fisolenlied
TTITLE15=Kontaktanzeige
TTITLE16=Zum Teufel mitn Blues
TTITLE17=Tachno and Rave
TTITLE18=Da Kasperl bin i
EXTD=
EXTT0=
EXTT1=
EXTT2=
EXTT3=
EXTT4=
EXTT5=
EXTT6=
EXTT7=
EXTT8=
EXTT9=
EXTT10=
EXTT11=
EXTT12=
EXTT13=
EXTT14=
EXTT15=
EXTT16=
EXTT17=
EXTT18=
PLAYORDER=
